<?xml version="1.0" standalone="no"?>
<!DOCTYPE svg PUBLIC "-//W3C//DTD SVG 20010904//EN"
 "http://www.w3.org/TR/2001/REC-SVG-20010904/DTD/svg10.dtd">
<svg version="1.0" xmlns="http://www.w3.org/2000/svg"
 width="1280.000000pt" height="1280.000000pt" viewBox="0 0 1280.000000 1280.000000"
 preserveAspectRatio="xMidYMid meet">
<metadata>
Created by potrace 1.14, written by Peter Selinger 2001-2017
</metadata>
<g transform="translate(0.000000,1280.000000) scale(0.100000,-0.100000)"
fill="#000000" stroke="none">
<path d="M3902 11020 c-14 -6 -32 -30 -45 -59 l-20 -50 -42 34 c-47 39 -140
68 -222 69 -49 1 -55 -2 -98 -44 -25 -24 -45 -49 -45 -56 0 -6 -7 -17 -15 -24
-8 -7 -15 -27 -15 -46 0 -36 -14 -51 -33 -37 -7 5 -33 17 -60 27 l-47 18 -47
-28 c-26 -15 -56 -37 -66 -48 -30 -34 -83 -156 -100 -229 -21 -94 -11 -121 51
-137 68 -19 74 -30 16 -30 -27 0 -59 -7 -70 -15 -46 -32 -87 -164 -74 -235 5
-25 9 -63 10 -84 0 -72 104 -146 204 -146 36 0 34 -29 -3 -61 -30 -26 -61
-108 -61 -161 0 -59 64 -143 121 -158 42 -12 61 -7 107 27 26 20 36 22 47 13
19 -16 19 -36 0 -44 -19 -7 -19 -53 -1 -98 19 -46 33 -56 81 -60 39 -3 40 -4
41 -43 0 -22 6 -53 13 -70 8 -16 13 -48 13 -70 -1 -25 1 -34 6 -22 7 16 9 15
26 -5 23 -27 32 -96 11 -78 -12 10 -13 6 -5 -20 14 -47 35 -77 83 -111 65 -47
67 -59 10 -59 -38 -1 -44 -3 -30 -11 9 -6 26 -8 36 -4 22 7 74 -11 67 -24 -3
-5 -92 -7 -198 -6 -147 3 -174 2 -113 -5 44 -5 188 -9 320 -10 132 -1 292 -5
355 -9 l115 -6 -3 -40 c-2 -22 -7 -44 -12 -48 -4 -5 -81 -10 -170 -12 -89 -3
-197 -9 -239 -14 -96 -12 -194 -11 -202 2 -5 6 -65 7 -180 1 -143 -8 -179 -13
-202 -28 -16 -11 -25 -22 -20 -25 4 -3 5 -24 2 -46 -4 -28 -7 -33 -9 -15 -2
22 -3 20 -11 -10 -14 -57 -4 -76 54 -103 29 -13 75 -45 102 -70 35 -34 67 -53
114 -68 80 -26 97 -39 51 -39 -116 1 -220 35 -329 107 -46 31 -52 38 -35 43
15 6 13 9 -16 18 -72 22 -97 24 -103 8 -4 -9 -13 -16 -21 -16 -17 0 -43 -14
-133 -73 -39 -26 -75 -47 -80 -47 -33 0 -233 -223 -266 -296 -7 -16 -42 -74
-78 -129 -36 -55 -96 -147 -133 -205 -158 -246 -192 -289 -270 -343 -14 -10
-26 -23 -26 -30 0 -28 174 -193 264 -251 l28 -18 -28 -27 c-21 -20 -34 -25
-46 -19 -14 7 -16 5 -12 -7 5 -13 2 -14 -21 -5 -42 16 -50 12 -25 -15 l23 -25
-26 -26 c-14 -14 -36 -56 -48 -92 -19 -59 -42 -106 -59 -122 -11 -11 -30 -51
-30 -64 0 -8 -9 -22 -21 -30 -12 -8 -18 -19 -15 -25 8 -12 -8 -43 -44 -86 -30
-36 -40 -41 -51 -24 -5 9 -14 2 -28 -22 -27 -44 -27 -62 -1 -54 11 4 20 2 20
-4 0 -6 -4 -11 -9 -11 -6 0 -9 -18 -8 -40 1 -27 6 -40 15 -40 11 0 13 -10 9
-41 -5 -38 14 -103 34 -119 6 -4 18 -35 75 -182 8 -21 21 -55 29 -75 17 -44
55 -182 62 -231 5 -29 0 -39 -33 -73 -21 -21 -43 -39 -50 -39 -6 0 -24 38 -39
85 -15 47 -29 85 -31 85 -6 0 7 -65 28 -133 l21 -68 -76 -77 c-89 -92 -107
-129 -117 -242 -4 -47 -17 -127 -29 -179 -25 -111 -25 -111 -8 -111 6 0 24 -6
38 -14 14 -7 39 -16 55 -20 16 -4 58 -18 94 -31 36 -13 76 -26 91 -29 24 -5
106 -85 359 -346 56 -58 152 -157 213 -220 141 -146 184 -195 192 -220 7 -22
30 -24 99 -12 39 7 39 8 43 57 6 74 6 75 67 75 31 0 101 5 156 11 l101 12 -73
42 c-40 23 -118 68 -173 100 -55 32 -113 65 -130 73 -16 9 -49 28 -72 44 -23
15 -46 28 -50 28 -18 0 -93 62 -93 76 0 8 -22 29 -50 46 -39 24 -51 38 -56 63
-11 58 -4 70 45 73 25 2 54 -1 65 -6 12 -6 48 -16 81 -22 33 -7 78 -16 100
-21 22 -5 49 -11 60 -14 11 -2 38 -9 60 -15 42 -12 65 -17 185 -45 41 -9 91
-21 110 -26 19 -4 64 -15 100 -23 93 -20 196 -44 375 -85 22 -6 58 -15 80 -21
45 -12 155 -36 230 -51 73 -14 139 -31 150 -39 6 -4 37 -11 70 -15 33 -4 63
-12 67 -19 12 -18 38 4 64 55 21 40 31 80 33 132 1 9 8 17 16 17 8 0 15 4 15
9 0 5 10 11 23 15 12 3 35 17 51 31 24 20 40 25 84 25 l55 0 -6 -72 c-3 -40
-11 -85 -18 -100 -9 -22 -10 -37 -1 -67 7 -21 12 -54 12 -74 0 -48 -8 -44 160
-80 36 -8 85 -20 110 -27 25 -6 74 -17 110 -25 36 -7 75 -16 86 -20 17 -5 26
1 44 32 45 74 205 245 295 314 17 13 32 26 35 30 3 3 60 41 128 83 113 71 200
112 292 137 19 6 44 14 55 19 87 38 501 65 645 41 136 -22 177 -30 239 -46 36
-9 72 -21 80 -25 88 -43 235 -119 271 -140 25 -15 52 -25 60 -22 8 3 12 1 8
-3 -10 -10 92 -95 113 -95 34 0 29 20 -13 51 -24 17 -56 37 -73 44 -29 13 -51
29 -157 111 -46 36 -48 39 -48 88 l0 50 120 120 c66 65 120 122 120 124 0 3 7
13 16 23 14 16 14 21 -2 54 -14 31 -15 41 -5 57 17 28 25 281 8 275 -6 -2 -22
9 -35 25 -13 15 -31 28 -40 28 -21 0 -61 58 -71 102 -4 18 -5 69 -2 113 5 65
12 89 36 129 17 27 37 61 46 75 8 14 23 49 33 76 16 49 89 370 101 450 4 22
13 57 20 77 8 20 26 83 41 140 14 57 28 105 30 107 2 2 20 -13 39 -35 41 -46
42 -65 15 -189 -21 -94 -81 -459 -79 -485 2 -32 39 150 50 245 6 55 15 105 19
110 5 6 16 48 25 95 9 47 20 105 25 130 5 25 12 72 16 105 12 111 20 88 32
-87 7 -95 23 -236 36 -313 21 -119 23 -161 19 -278 -4 -80 -1 -195 7 -272 l12
-134 -42 -91 c-47 -102 -48 -131 -9 -240 42 -116 36 -110 104 -104 33 3 73 10
89 15 16 5 42 9 57 9 16 0 66 7 111 15 46 9 119 22 163 30 44 8 130 24 190 34
146 27 221 40 335 57 52 9 118 19 145 24 28 5 93 15 145 24 52 8 113 20 135
25 22 6 77 11 123 11 l82 0 0 -49 c0 -54 3 -51 -148 -164 -24 -17 -80 -61
-125 -97 -45 -35 -111 -87 -147 -115 -36 -28 -85 -67 -110 -85 -25 -19 -47
-37 -50 -40 -3 -3 -23 -19 -45 -35 -22 -16 -63 -48 -91 -70 -100 -79 -127
-100 -142 -111 -12 -9 7 -18 89 -43 57 -18 115 -37 129 -41 14 -5 66 -20 115
-35 50 -14 101 -30 115 -35 55 -18 260 -81 345 -106 108 -31 263 -83 288 -95
20 -12 24 -91 5 -107 -7 -5 -49 -25 -93 -45 -105 -46 -181 -80 -290 -131 -49
-23 -133 -62 -187 -87 l-96 -44 191 -5 192 -5 3 -48 3 -47 70 0 69 0 0 74 0
74 31 6 c17 3 61 6 98 6 36 0 80 4 97 9 17 5 97 12 178 16 123 6 146 5 146 -7
0 -30 41 -98 58 -98 21 0 42 50 42 102 0 42 17 95 41 125 18 25 14 65 -14 133
l-15 34 69 68 c76 76 89 105 83 195 -3 57 -16 98 -52 173 -29 60 -40 64 -129
43 -23 -5 -23 -4 -23 97 l0 102 66 -4 67 -3 15 50 c9 28 16 51 18 53 1 2 25 5
54 7 56 5 77 15 135 66 27 24 35 39 35 65 0 27 8 41 35 65 21 19 39 47 46 72
27 101 44 147 80 225 22 46 39 86 39 89 0 8 112 185 127 201 7 7 15 24 18 38
3 13 7 34 10 47 6 29 69 126 93 143 22 15 120 210 153 306 19 52 23 85 23 193
1 114 -2 136 -21 175 -22 45 -132 159 -308 320 -49 45 -98 98 -108 117 -11 20
-37 45 -65 61 -60 34 -142 116 -142 141 0 37 -12 51 -71 82 -61 33 -82 59
-114 143 -22 57 -162 204 -254 265 -60 39 -101 52 -286 86 -38 7 -96 20 -128
30 -64 19 -93 15 -175 -21 -63 -28 -143 -40 -167 -26 -16 9 -15 11 11 28 16
10 40 29 54 41 14 13 28 23 32 23 5 0 8 6 8 13 0 8 9 22 21 33 16 14 19 26 14
51 -10 56 -33 100 -65 125 -17 12 -46 36 -65 51 -19 16 -44 29 -57 29 -13 0
-61 9 -108 18 -102 21 -195 39 -271 51 -78 12 -229 68 -229 84 0 24 14 24 101
6 46 -10 125 -26 174 -35 50 -10 122 -28 160 -41 74 -24 202 -43 175 -25 -8 5
-26 10 -40 10 -23 0 -23 1 -7 18 14 13 35 17 91 17 l74 0 16 45 c18 51 46 167
46 190 0 10 -6 7 -19 -9 -12 -16 -24 -22 -35 -18 -28 11 -18 45 23 78 82 66
183 329 126 329 -23 0 -18 24 10 50 33 31 43 85 20 110 -15 16 -15 24 -6 52
15 43 26 168 17 202 -5 21 -11 26 -25 21 -14 -4 -21 1 -26 22 -5 15 -7 35 -6
43 2 13 0 13 -8 1 -8 -12 -12 -12 -26 2 -15 16 -15 17 5 17 39 0 62 -19 56
-46 -5 -18 -3 -22 9 -18 18 7 19 27 3 53 -9 14 -8 23 5 42 22 31 21 66 -3 112
-13 24 -20 56 -20 92 0 54 33 206 70 321 11 34 20 67 20 73 0 32 -215 -12
-354 -74 -69 -30 -85 -31 -138 -4 -51 26 -186 66 -254 75 -45 5 -59 14 -116
68 -72 69 -175 127 -256 146 -81 19 -196 9 -257 -22 -50 -26 -154 -103 -187
-138 -30 -32 -126 -196 -141 -242 -8 -24 -19 -43 -23 -42 -5 0 -27 28 -49 63
-61 94 -131 186 -141 184 -42 -7 -85 -402 -55 -503 6 -19 8 -56 5 -82 -5 -38
-2 -54 15 -84 14 -24 20 -46 16 -61 -5 -23 -5 -24 20 -7 24 16 26 16 45 -6 19
-22 19 -23 -4 -41 -30 -24 -55 -81 -38 -87 8 -2 10 -17 6 -45 -3 -23 -2 -37 3
-31 19 25 51 34 77 22 21 -9 29 -8 44 5 10 10 27 17 38 17 21 0 -61 -52 -83
-53 -12 0 -17 -11 -14 -30 1 -5 -8 -6 -19 -2 -15 5 -18 3 -14 -9 3 -9 -1 -23
-11 -32 -15 -15 -16 -14 -10 12 5 21 4 25 -3 15 -8 -11 -12 -6 -17 22 -4 21
-5 49 -2 62 2 14 0 28 -4 31 -12 7 -11 -72 0 -113 6 -20 5 -35 -2 -42 -7 -7
-6 -16 6 -29 9 -10 17 -23 17 -28 0 -5 14 -27 30 -48 l30 -39 -31 -15 c-38
-19 -43 -31 -31 -75 8 -30 8 -35 -5 -30 -8 3 -24 24 -34 47 -16 35 -18 36 -13
11 3 -16 16 -41 28 -55 40 -43 56 -74 56 -103 0 -31 -47 -127 -62 -127 -10 0
-10 7 3 53 14 53 4 91 -38 135 -19 20 -42 55 -51 77 -19 50 -40 75 -63 75 -10
0 -26 11 -37 25 -28 36 -57 32 -87 -12 -14 -21 -25 -43 -25 -49 0 -19 -74 -85
-100 -91 -16 -3 -31 -16 -39 -35 l-13 -29 -30 28 c-28 26 -29 32 -23 78 8 64
26 83 86 91 27 4 49 10 49 15 0 4 7 14 15 22 18 19 33 73 16 63 -6 -4 -11 -14
-11 -22 0 -18 -38 -56 -49 -50 -4 3 -2 36 6 73 46 219 46 222 33 281 -7 32
-17 62 -22 69 -5 6 -11 30 -13 53 -4 43 -79 210 -95 210 -20 0 -36 -60 -23
-90 10 -25 1 -126 -13 -139 -4 -3 -4 6 -2 22 3 15 1 27 -3 27 -5 0 -9 -8 -10
-17 0 -10 -9 21 -19 69 -11 48 -26 100 -35 115 -10 18 -14 21 -11 8 3 -11 7
-47 10 -80 2 -33 3 -50 0 -39 -4 15 -11 20 -23 17 -15 -4 -22 4 -31 34 -7 21
-19 42 -26 46 -8 4 -14 24 -14 42 0 19 -4 35 -10 35 -5 0 -10 -7 -10 -15 0
-27 -17 -16 -51 35 -19 27 -39 50 -46 50 -6 0 -15 4 -18 10 -4 6 1 7 10 3 10
-3 -2 22 -30 63 -37 55 -59 76 -106 102 -65 35 -80 38 -109 20 -15 -10 -28 -9
-62 3 l-43 16 1 82 c0 44 -3 81 -6 81 -4 0 -13 -11 -20 -25 -7 -14 -15 -24
-17 -22 -3 3 10 49 22 80 4 10 3 17 -3 17 -6 0 -13 -10 -17 -22 -7 -25 -27
-70 -35 -78 -3 -3 -21 -36 -40 -75 -53 -107 -99 -183 -128 -214 -15 -16 -35
-44 -46 -62 -29 -52 -30 -19 -2 67 30 91 31 101 11 84 -12 -10 -15 -9 -15 6 0
12 -3 15 -10 8 -7 -7 -8 -19 -1 -37 8 -20 7 -25 -3 -21 -7 3 -21 -5 -31 -16
-19 -20 -18 -21 1 -15 18 6 18 6 0 -5 -10 -7 -27 -21 -37 -31 -18 -18 -45 -27
-35 -11 2 4 -3 16 -11 27 -15 20 -15 20 -10 -3 4 -19 2 -22 -14 -17 -17 6 -18
3 -10 -18 8 -22 7 -23 -15 -19 -19 3 -24 0 -24 -17 0 -11 -4 -20 -10 -19 -5 2
-23 -17 -39 -41 -24 -36 -31 -42 -37 -28 -3 10 -1 24 6 32 7 9 11 18 8 21 -3
2 -23 -18 -44 -45 -21 -28 -39 -49 -41 -48 -1 2 6 36 18 76 23 84 20 101 -6
39 -9 -24 -21 -52 -26 -63 -5 -11 -16 -45 -24 -75 -8 -30 -19 -56 -25 -58 -5
-2 -10 -9 -11 -15 0 -19 -103 -97 -110 -85 -4 6 -10 1 -14 -11 -9 -30 -11
-221 -2 -251 8 -23 7 -24 -7 -6 -8 10 -18 44 -21 75 -14 124 -22 133 -18 20 4
-96 2 -119 -11 -132 -21 -20 -20 -33 4 -127 24 -95 57 -160 81 -160 10 0 21
-4 24 -10 8 -12 56 -13 88 -1 29 11 38 6 71 -43 30 -45 33 -68 10 -90 -23 -24
-31 -20 -32 16 0 17 -8 38 -16 46 -14 14 -15 12 -9 -21 7 -43 -3 -90 -18 -82
-7 5 -7 11 1 20 18 22 -12 35 -32 14 -12 -12 -13 -19 -5 -23 8 -3 7 -5 -2 -5
-8 -1 -22 5 -30 12 -46 39 -156 58 -240 41 -17 -4 -60 -32 -98 -65 -47 -42
-69 -56 -74 -47 -4 7 -11 9 -15 5 -4 -3 -28 9 -53 27 -101 73 -219 115 -309
108 -34 -2 -62 -1 -62 3 0 8 68 95 88 112 10 8 12 22 8 47 -10 50 11 154 38
196 13 20 59 68 104 108 73 66 81 71 96 57 15 -15 16 -12 16 38 0 66 -7 88
-26 80 -10 -4 -13 0 -8 13 4 13 1 12 -8 -4 -23 -38 -27 -13 -6 35 14 33 20 69
21 133 1 49 5 86 10 83 16 -10 47 -94 47 -127 0 -19 -9 -45 -21 -60 -24 -31
-20 -43 10 -27 42 23 39 118 -5 205 -14 26 -23 54 -20 62 3 8 2 14 -3 14 -4 0
-6 11 -4 24 3 13 0 32 -6 43 -11 16 -11 16 -6 -4 4 -13 2 -23 -4 -23 -13 0
-20 28 -23 102 -3 66 3 64 27 -9 9 -29 19 -53 22 -53 3 0 2 23 -2 51 -5 36 -4
50 3 45 6 -4 8 -14 5 -23 -6 -15 -5 -16 9 -3 9 8 13 17 9 20 -4 3 -13 20 -20
38 -8 17 -17 32 -22 32 -5 0 -9 7 -9 15 0 8 -11 22 -24 30 -19 13 -23 23 -21
58 1 24 1 28 -2 10 -3 -24 -9 -33 -22 -33 -34 0 -58 51 -36 74 19 19 19 30 0
22 -10 -4 -19 2 -25 17 -5 12 -9 18 -9 14 -1 -5 -8 -1 -17 8 -9 9 -13 19 -10
23 4 3 11 0 16 -8 6 -8 10 -11 10 -6 0 5 9 1 20 -9 38 -34 34 -5 -4 34 -45 46
-151 105 -178 98 -18 -5 -58 26 -58 44 0 5 -28 21 -62 37 -68 32 -130 50 -113
34 6 -6 19 -12 30 -15 16 -4 16 -5 -5 -6 -15 -1 -30 7 -38 19 -7 11 -18 20
-26 20 -8 0 -22 17 -31 38 -10 20 -23 44 -31 52 -7 8 -22 40 -33 70 -26 69
-39 88 -125 172 -100 98 -175 128 -339 134 -71 2 -132 0 -145 -6z m896 -558
c6 -9 12 -21 12 -26 0 -6 -10 1 -21 17 -11 15 -27 27 -35 27 -8 0 -14 5 -14
10 0 6 -7 10 -15 10 -8 0 -15 5 -15 11 0 12 69 -26 88 -49z m-1593 -82 c3 -6
-4 -10 -17 -10 -18 0 -20 2 -8 10 19 12 18 12 25 0z m1765 1 c0 -19 -22 -23
-38 -7 -15 15 -14 16 11 16 15 0 27 -4 27 -9z m35 -31 c10 -11 15 -20 11 -20
-14 0 -46 21 -46 30 0 16 16 11 35 -10z m1172 -402 c-3 -7 -5 -2 -5 12 0 14 2
19 5 13 2 -7 2 -19 0 -25z m1630 -56 c-10 -10 -17 -24 -17 -30 0 -7 -4 -12
-10 -12 -16 0 -12 18 10 40 25 25 39 26 17 2z m-37 -72 c0 -5 -5 -10 -11 -10
-5 0 -7 5 -4 10 3 6 8 10 11 10 2 0 4 -4 4 -10z m-30 -20 c0 -5 -4 -10 -10
-10 -5 0 -10 5 -10 10 0 6 5 10 10 10 6 0 10 -4 10 -10z m1750 -50 c0 -10 7
-23 15 -30 16 -14 21 -55 5 -45 -5 3 -10 -1 -10 -9 0 -9 -5 -16 -11 -16 -6 0
-9 6 -6 13 2 6 -1 23 -7 37 -7 14 -11 35 -10 48 0 12 -3 22 -7 22 -5 0 -9 7
-9 17 0 14 2 14 20 -2 11 -10 20 -26 20 -35z m-2286 -97 c45 -91 45 -101 4
-97 -17 2 -34 7 -37 10 -3 3 -6 35 -6 72 -1 37 -5 76 -10 87 -19 47 16 -5 49
-72z m474 55 c-9 -13 -19 -38 -23 -57 -5 -22 -10 -30 -17 -23 -14 14 -3 52 23
86 25 32 38 27 17 -6z m-2547 -44 c-5 -16 -10 -21 -10 -12 -1 18 10 51 15 45
2 -1 -1 -16 -5 -33z m2814 -174 c-3 -5 -10 -10 -16 -10 -5 0 -9 5 -9 10 0 6 7
10 16 10 8 0 12 -4 9 -10z m-87 -17 c-10 -2 -18 -9 -18 -14 0 -12 47 -12 55 1
3 6 10 10 16 10 5 0 9 -4 9 -10 0 -5 -8 -10 -17 -10 -14 0 -15 -2 -4 -9 10 -7
10 -10 1 -16 -7 -4 -16 -2 -21 6 -5 9 -28 13 -71 13 -44 -1 -54 1 -33 6 17 4
40 12 50 18 11 6 27 11 35 11 11 -1 10 -3 -2 -6z m-102 -61 c-8 -13 -46 -22
-46 -11 0 10 42 30 49 23 1 -1 0 -7 -3 -12z m99 9 c3 -5 1 -12 -5 -16 -5 -3
-10 1 -10 9 0 18 6 21 15 7z m80 -1 c3 -5 1 -10 -4 -10 -6 0 -11 5 -11 10 0 6
2 10 4 10 3 0 8 -4 11 -10z m-27 -18 c9 -6 5 -12 -13 -20 -39 -18 -51 -14 -29
7 22 23 25 24 42 13z m-144 -41 c4 -5 -3 -7 -14 -4 -23 6 -26 13 -6 13 8 0 17
-4 20 -9z m1733 -43 c-3 -7 -5 -2 -5 12 0 14 2 19 5 13 2 -7 2 -19 0 -25z
m-182 -8 c3 -5 2 -10 -4 -10 -5 0 -13 5 -16 10 -3 6 -2 10 4 10 5 0 13 -4 16
-10z m192 -87 c-14 -14 -17 -14 -31 -1 -13 13 -11 15 16 16 28 1 30 -1 15 -15z
m-5860 -189 c-3 -3 -12 -4 -19 -1 -8 3 -5 6 6 6 11 1 17 -2 13 -5z m13 -45 c0
-6 -4 -7 -10 -4 -5 3 -10 11 -10 16 0 6 5 7 10 4 6 -3 10 -11 10 -16z m3507
-96 c10 -16 27 -45 37 -65 11 -21 23 -38 27 -38 5 0 19 16 31 35 27 41 35 43
50 10 9 -20 8 -31 -2 -51 -27 -49 -135 -149 -200 -183 -100 -53 -206 -135
-310 -241 -122 -122 -171 -162 -245 -195 -33 -15 -68 -31 -77 -36 -29 -15 -64
-10 -84 12 -19 21 -19 22 41 76 33 30 98 80 145 112 47 32 123 84 170 116 47
32 105 72 130 89 25 16 76 52 113 80 l68 50 -35 14 c-20 8 -36 17 -36 21 0 4
14 20 31 37 39 36 93 120 102 157 9 34 21 34 44 0z m-2793 -12 c11 -12 20 -49
26 -104 6 -47 14 -98 20 -112 9 -24 8 -25 -18 -19 -15 4 -36 12 -47 19 -11 7
-35 16 -53 19 -28 7 -32 12 -32 39 -1 18 -7 43 -15 57 -8 14 -14 41 -15 62 0
33 3 37 38 46 57 15 77 14 96 -7z m3362 -88 c-11 -11 -17 4 -9 23 7 18 8 18
11 1 2 -10 1 -21 -2 -24z m-1939 -67 c26 -24 45 -47 41 -51 -4 -4 -20 6 -36
23 -17 19 -43 33 -67 38 -35 6 -37 8 -20 20 26 19 28 19 82 -30z m2833 -24 c0
-19 -84 -190 -102 -207 -7 -7 -8 1 -4 25 7 37 5 36 -34 -19 -16 -24 -77 -55
-102 -53 -10 0 -18 -3 -18 -9 0 -5 -4 -9 -9 -9 -8 0 22 67 48 110 6 8 23 49
39 90 32 83 37 86 135 89 39 1 47 -2 47 -17z m-1035 -22 c-10 -11 -23 -20 -28
-20 -6 0 0 11 13 25 27 29 42 25 15 -5z m-1793 -56 c32 -15 60 -35 63 -44 3
-9 17 -23 30 -30 14 -7 25 -16 25 -20 0 -4 21 -17 48 -29 34 -16 59 -39 92
-84 50 -69 142 -159 198 -194 20 -12 34 -23 31 -23 -17 -1 -74 25 -89 40 -9 9
-47 25 -84 35 -71 19 -127 62 -156 120 -36 72 -93 126 -182 172 -88 45 -115
71 -104 99 6 16 21 12 128 -42z m1721 -6 c-8 -14 -99 -100 -146 -138 -154
-125 -276 -250 -376 -387 -84 -115 -157 -174 -184 -147 -3 4 16 23 42 43 27
20 75 65 106 101 32 36 61 67 65 70 4 3 21 27 38 53 70 111 271 305 394 380
68 41 73 43 61 25z m1720 -71 c-10 -44 -13 -51 -23 -41 -7 7 -6 21 1 42 12 35
30 35 22 -1z m-3849 -117 c25 0 100 -98 150 -197 62 -121 76 -134 166 -148 58
-10 198 -76 230 -110 24 -26 86 -59 175 -93 64 -25 197 -90 209 -102 6 -6 9
-32 7 -60 -4 -70 18 -76 67 -21 l37 41 54 -10 c30 -6 56 -12 58 -14 7 -7 -91
-108 -113 -116 -42 -17 -333 55 -447 110 -22 11 -42 18 -44 16 -2 -1 19 -24
47 -50 59 -55 65 -70 13 -30 -159 120 -383 329 -383 358 0 7 -37 61 -55 82
-110 121 -144 167 -145 191 0 20 -54 127 -57 116 -2 -6 6 -34 17 -64 l21 -53
-21 19 c-37 33 -53 73 -45 114 9 49 14 55 34 37 10 -9 21 -16 25 -16z m400
-17 c71 -44 277 -142 426 -204 58 -24 127 -60 153 -81 27 -21 57 -38 66 -38 9
0 26 -6 37 -14 13 -10 15 -14 4 -13 -8 1 -15 -2 -15 -8 0 -5 27 -19 60 -31 66
-23 76 -37 30 -42 -35 -3 -125 49 -125 73 0 9 -9 15 -23 15 -13 0 -42 14 -64
30 -63 46 -304 167 -391 196 -46 15 -97 42 -127 65 -127 99 -137 116 -31 52z
m-2252 -301 c122 -55 242 -91 326 -98 45 -4 80 -9 77 -12 -20 -20 -493 32
-518 57 -7 7 -6 16 4 28 28 34 43 53 45 53 1 0 31 -13 66 -28z m961 5 c12 -12
41 -44 64 -69 58 -64 78 -74 108 -54 14 9 26 16 29 16 9 0 48 -71 42 -77 -9
-9 -119 -53 -134 -53 -20 0 -152 215 -152 249 0 18 19 13 43 -12z m-377 -11
l109 -11 -90 -14 c-82 -12 -106 -11 -256 8 -91 12 -170 21 -175 21 -5 0 -2 5
6 10 17 12 234 4 406 -14z m4134 3 c0 -13 -34 -45 -94 -90 -25 -18 -50 -29
-70 -28 -39 1 -99 22 -104 37 -6 19 54 42 111 42 41 0 61 6 87 25 36 26 70 33
70 14z m-1982 -134 c83 -40 104 -59 86 -78 -4 -3 -21 4 -38 17 -31 23 -56 35
-149 75 -28 12 -46 25 -42 31 9 14 33 7 143 -45z m-2538 -14 c25 -6 106 -11
180 -12 74 0 173 -4 220 -8 76 -6 81 -8 45 -14 -22 -4 -69 -15 -103 -24 -95
-24 -220 -10 -483 53 -159 38 -171 55 -23 33 65 -9 139 -22 164 -28z m2958 16
c20 -13 55 -31 77 -40 l40 -16 -33 0 c-18 -1 -49 6 -69 14 -19 8 -43 15 -53
15 -22 0 -35 31 -18 42 17 10 13 11 56 -15z m3125 -45 c172 -47 186 -55 287
-172 30 -35 60 -68 66 -74 29 -31 64 -94 64 -118 0 -42 10 -58 51 -78 21 -11
76 -56 121 -100 45 -44 89 -82 98 -85 19 -6 60 -66 60 -88 0 -9 7 -17 15 -17
8 0 25 -15 37 -34 12 -18 36 -41 53 -50 40 -23 102 -82 205 -196 47 -52 88
-97 91 -100 28 -23 66 -180 44 -180 -4 0 -27 20 -51 45 -35 35 -46 55 -54 97
-6 28 -18 60 -28 71 -40 45 -139 112 -210 142 -43 17 -111 48 -152 68 -41 20
-122 55 -180 77 -58 23 -116 50 -130 61 l-25 20 65 -5 c45 -4 60 -3 50 4 -38
26 -141 85 -198 113 -87 43 -60 47 30 4 61 -29 246 -84 348 -104 24 -5 24 -5
5 10 -11 8 -31 18 -43 22 -13 4 -43 20 -67 36 -23 16 -114 63 -201 105 -88 42
-172 85 -187 96 -27 20 -29 20 -42 2 -9 -12 -15 -65 -20 -154 -6 -130 -28
-301 -45 -358 -15 -46 -9 128 7 220 11 58 13 120 9 208 -5 124 -33 265 -52
265 -5 0 -11 -26 -14 -57 -3 -31 -8 -60 -12 -63 -6 -6 -38 56 -38 73 0 3 -14
34 -31 69 -41 85 -84 119 -158 126 -32 4 -68 10 -80 15 -22 8 -19 10 30 34 30
14 69 29 87 33 43 9 40 22 -8 35 -22 6 -40 13 -40 16 0 14 136 -5 243 -34z
m-278 3 c-54 -46 -75 -58 -115 -65 -58 -11 -49 7 18 36 31 14 68 31 82 39 40
22 47 17 15 -10z m-2602 -22 c-24 -2 -62 -2 -85 0 -24 2 -5 4 42 4 47 0 66 -2
43 -4z m487 3 c0 -2 -23 -21 -51 -41 -43 -30 -71 -41 -163 -60 -61 -13 -124
-29 -141 -35 -38 -14 -210 -5 -309 17 -39 8 -106 23 -149 32 -69 15 -77 19
-62 31 13 11 25 11 63 2 26 -6 65 -14 87 -18 22 -4 48 -11 57 -15 38 -20 192
-28 264 -14 207 41 294 64 321 83 24 18 83 31 83 18z m200 -45 c0 -23 -38 -52
-75 -57 l-40 -6 50 35 c52 37 65 43 65 28z m718 -31 c17 0 32 -4 32 -10 0 -13
-32 -12 -110 5 l-65 14 55 -4 c30 -3 70 -5 88 -5z m-823 -135 c50 -36 121 -88
159 -115 39 -28 63 -50 55 -50 -24 0 -252 64 -387 109 -67 23 -129 41 -137 41
-37 0 -9 19 48 33 34 9 80 23 102 31 22 8 47 15 55 15 8 1 56 -29 105 -64z
m-720 -9 c61 -4 142 -9 182 -12 l71 -6 5 -37 c2 -20 1 -40 -3 -44 -14 -15
-349 79 -375 106 -7 7 -7 8 0 5 6 -3 60 -9 120 -12z m-655 -152 c55 -48 155
-105 175 -99 63 17 125 15 210 -4 117 -28 185 -50 185 -62 0 -5 5 -9 11 -9 5
0 7 5 4 10 -8 14 -5 13 130 -15 292 -62 481 -125 619 -209 51 -31 97 -56 102
-57 9 0 110 -119 101 -119 -9 0 -101 39 -129 55 -14 8 -68 31 -120 51 -51 19
-106 41 -123 49 -54 24 -307 117 -440 161 -96 32 -169 48 -280 63 -264 36
-252 32 -383 127 -121 88 -174 132 -117 98 17 -10 41 -27 55 -40z m-187 -40
c18 -9 34 -20 37 -23 3 -4 18 -14 33 -24 90 -58 89 -209 -2 -247 -25 -10 -40
-10 -76 0 -72 20 -79 34 -72 142 7 101 22 168 38 168 5 0 24 -7 42 -16z m-131
-98 c15 -27 2 -247 -15 -258 -18 -12 -75 -10 -83 3 -9 15 -27 297 -20 315 7
18 102 -30 118 -60z m-2777 -423 c8 -17 15 -39 15 -48 0 -10 18 -71 40 -136
43 -127 90 -301 90 -334 0 -11 10 -31 23 -45 12 -14 35 -45 50 -68 26 -40 29
-54 32 -145 2 -100 14 -161 41 -224 8 -17 14 -36 14 -43 0 -6 7 -18 15 -26 8
-9 17 -27 20 -42 3 -15 12 -50 20 -78 24 -83 15 -143 -25 -171 -11 -8 -20 -21
-20 -29 0 -8 -4 -14 -8 -14 -5 0 -6 -15 -4 -32 l5 -33 -22 19 c-13 12 -21 15
-21 7 0 -7 9 -20 19 -29 11 -10 32 -39 46 -65 21 -38 25 -57 20 -85 -7 -42
-44 -100 -45 -69 0 23 -75 25 -84 2 -3 -8 -14 -15 -25 -15 -11 0 -21 -6 -24
-12 -12 -37 -93 113 -84 158 3 20 1 22 -14 14 -26 -14 -30 -2 -36 108 -7 121
-21 142 -94 142 -27 0 -71 -5 -99 -11 -44 -9 -55 -8 -93 10 -24 12 -50 21 -59
21 -12 0 -17 19 -24 92 l-9 91 -39 20 c-36 19 -45 19 -110 8 -39 -6 -81 -14
-93 -17 -18 -5 -24 0 -32 27 l-9 34 -1 -38 c-1 -33 -4 -38 -22 -35 -17 2 -26
18 -44 74 -28 88 -69 171 -102 205 -19 21 -26 41 -30 87 -7 78 9 89 53 37 l32
-39 11 40 c6 21 18 49 26 62 9 12 12 22 6 22 -5 0 -12 -8 -16 -17 -3 -10 -14
-29 -25 -41 -17 -21 -21 -22 -34 -9 -13 12 -13 18 1 43 30 55 53 103 53 111 0
4 16 26 36 47 20 22 43 54 51 70 25 49 108 169 131 190 16 13 33 17 66 14 54
-4 59 3 14 20 l-32 12 23 21 c12 11 27 32 32 46 11 28 9 28 144 -1 39 -9 82
-16 96 -16 28 0 55 -23 45 -39 -4 -5 -2 -12 3 -15 6 -4 9 30 9 81 0 76 20 216
38 263 4 8 15 -21 25 -65 11 -44 26 -94 34 -112z m2199 106 c2 -30 5 -115 6
-189 2 -167 18 -147 20 25 2 136 12 118 29 -54 9 -95 18 -131 27 -106 2 6 19
34 37 64 36 61 62 79 51 36 -7 -28 14 -145 26 -145 4 0 10 -18 14 -40 3 -22
11 -40 16 -40 6 0 10 -6 10 -14 0 -7 9 -34 20 -59 11 -24 25 -90 32 -146 6
-55 15 -101 20 -101 4 0 8 -4 8 -10 0 -5 -6 -10 -13 -10 -22 0 -48 -72 -40
-111 8 -42 31 -79 49 -79 19 0 83 -70 90 -97 4 -13 10 -21 14 -18 5 3 12 -9
16 -27 10 -43 9 -37 23 -88 8 -25 17 -72 21 -104 6 -52 4 -65 -19 -105 -27
-48 -56 -82 -64 -75 -3 3 -7 -16 -9 -42 -4 -57 8 -83 93 -197 32 -44 59 -83
59 -88 0 -14 -28 -10 -70 10 l-39 19 2 -44 c1 -24 6 -44 11 -44 5 0 7 -3 4 -6
-14 -13 -128 78 -128 102 0 7 -13 46 -29 86 -31 76 -61 138 -61 126 0 -21 24
-115 32 -125 6 -7 10 -29 10 -50 0 -20 7 -47 14 -59 29 -44 -13 -119 -72 -130
-65 -12 -61 -23 67 -155 129 -132 179 -193 179 -217 0 -12 -10 -14 -49 -9 -74
9 -105 29 -231 152 -110 109 -114 114 -102 139 7 15 12 52 12 83 0 39 5 62 17
75 13 14 14 19 4 16 -8 -2 -20 8 -27 20 -6 13 -17 29 -24 35 -10 10 -11 7 -5
-13 4 -14 11 -56 16 -95 8 -64 6 -73 -15 -110 -37 -61 -186 -206 -207 -200 -9
3 -36 -2 -58 -11 -23 -9 -45 -13 -49 -9 -9 8 19 31 120 96 55 36 76 55 75 69
-1 23 -24 26 -52 7 -11 -8 -48 -22 -82 -32 -35 -10 -63 -22 -63 -26 0 -4 -9
-9 -20 -12 -11 -3 -20 -2 -20 1 0 11 20 38 20 28 0 -8 80 70 80 78 0 3 -7 12
-16 20 -27 28 -74 18 -207 -45 -71 -33 -131 -58 -135 -55 -6 6 66 75 79 76 3
0 19 12 35 26 16 14 52 43 80 64 71 54 83 67 77 88 -3 13 7 27 36 47 23 15 41
33 41 39 0 6 4 4 10 -4 5 -8 12 -11 16 -7 4 4 -11 27 -34 50 l-42 43 14 46
c14 46 11 148 -5 148 -4 0 3 12 17 27 13 14 22 28 20 30 -8 9 -86 -40 -79 -50
4 -6 1 -7 -6 -2 -7 4 -22 -1 -34 -12 -12 -10 -42 -32 -67 -49 -25 -16 -51 -35
-58 -41 -23 -22 -45 -16 -37 10 4 12 7 31 6 42 0 11 17 38 38 60 96 100 211
250 211 275 0 14 9 41 19 61 47 87 60 165 67 389 4 118 11 218 17 221 13 9 12
308 -2 342 -16 40 -14 117 2 117 7 0 28 -16 47 -35 37 -39 50 -37 50 6 0 32
30 162 36 156 2 -2 6 -28 8 -58z m2403 -125 c86 -34 91 -39 99 -96 6 -41 3
-51 -25 -92 -18 -25 -34 -46 -36 -46 -3 0 -5 26 -5 57 0 44 3 54 12 45 7 -7
16 -12 21 -12 14 0 -40 68 -97 123 -27 26 -47 47 -43 47 4 0 37 -12 74 -26z
m2263 -25 c0 -37 53 -68 288 -165 195 -82 199 -84 181 -95 -11 -8 -9 -13 11
-29 56 -43 61 -50 50 -69 -8 -16 -5 -23 16 -38 l26 -19 -44 -29 c-23 -17 -45
-33 -48 -36 -3 -3 -21 -14 -40 -25 -77 -43 -110 -78 -110 -119 0 -18 -6 -38
-14 -44 -8 -7 -17 -34 -21 -60 -3 -26 -18 -68 -33 -94 -32 -54 -204 -241 -244
-265 -29 -17 -38 -42 -14 -42 14 0 102 44 216 107 167 93 218 120 250 133 19
7 41 18 48 23 9 7 11 6 7 -4 -4 -8 -83 -63 -176 -124 -93 -60 -177 -116 -187
-122 -56 -41 -98 -65 -125 -70 -21 -4 -28 -3 -23 5 5 8 1 10 -10 5 -11 -4 -13
-8 -6 -11 7 -2 9 -8 6 -13 -3 -6 -11 -5 -20 2 -11 9 -18 9 -29 -1 -9 -7 -18
-10 -21 -7 -12 12 16 69 82 167 37 55 65 102 63 104 -6 6 -98 -107 -132 -161
-14 -23 -29 -54 -33 -70 -14 -60 -56 -119 -76 -107 -21 13 9 538 37 654 21 88
34 183 49 370 11 131 20 190 37 233 15 39 25 54 30 45 5 -7 9 -20 9 -29z
m-4471 -159 c0 -10 -3 -8 -9 5 -12 27 -12 43 0 25 5 -8 9 -22 9 -30z m41 -54
c0 -12 -5 -7 -19 24 -11 24 -11 24 3 6 9 -11 16 -24 16 -30z m5280 -665 c-5
-11 -10 -32 -10 -46 0 -15 -13 -45 -29 -68 -15 -23 -31 -52 -35 -64 -4 -12
-29 -56 -57 -98 -27 -42 -63 -104 -80 -138 -51 -100 -87 -147 -113 -147 -34 0
-86 20 -86 34 0 6 30 43 68 81 37 39 100 110 141 158 65 79 74 94 80 144 7 51
13 61 62 108 58 56 76 67 59 36z m-892 -358 c-14 -16 -37 -50 -51 -78 -14 -27
-40 -64 -56 -82 -17 -18 -31 -37 -31 -42 0 -6 -4 -11 -10 -11 -14 0 -12 11 5
33 7 11 17 38 20 60 5 27 17 51 34 67 15 14 32 33 37 41 9 14 49 37 68 38 6 1
-2 -11 -16 -26z m-4911 -205 c-3 -8 -6 -5 -6 6 -1 11 2 17 5 13 3 -3 4 -12 1
-19z m43 12 c0 -5 -4 -10 -10 -10 -5 0 -10 5 -10 10 0 6 5 10 10 10 6 0 10 -4
10 -10z m5400 -187 c0 -54 -9 -62 -75 -69 -50 -5 -58 -4 -48 7 7 7 28 18 45
23 19 6 41 25 53 43 11 18 21 32 23 33 1 0 2 -17 2 -37z m-80 -128 c-19 -14
-41 -25 -50 -25 -9 0 -21 -5 -28 -12 -9 -9 -12 -9 -12 -1 0 7 9 15 20 18 11 3
25 15 30 26 7 13 21 19 42 19 l32 0 -34 -25z m-5170 -193 c0 -8 -93 -65 -125
-76 -35 -13 4 20 65 53 62 34 60 34 60 23z"/>
<path d="M7089 8763 c-52 -71 -55 -83 -9 -33 45 48 66 80 52 80 -5 0 -24 -21
-43 -47z"/>
<path d="M9910 7673 c0 -29 105 -110 131 -101 5 2 -10 19 -33 39 -58 48 -98
73 -98 62z"/>
<path d="M6786 7355 c22 -7 54 -19 70 -28 41 -21 194 -70 200 -65 6 7 -135 58
-158 58 -10 0 -18 3 -18 8 0 10 -92 42 -116 41 -11 -1 -1 -7 22 -14z"/>
<path d="M7080 7252 c8 -5 26 -13 40 -16 17 -5 20 -4 10 2 -8 5 -26 13 -40 16
-17 5 -20 4 -10 -2z"/>
<path d="M2910 6800 c-9 -6 -10 -10 -3 -10 6 0 15 5 18 10 8 12 4 12 -15 0z"/>
<path d="M2961 6784 c0 -11 3 -14 6 -6 3 7 2 16 -1 19 -3 4 -6 -2 -5 -13z"/>
<path d="M2401 6064 c0 -11 3 -14 6 -6 3 7 2 16 -1 19 -3 4 -6 -2 -5 -13z"/>
<path d="M2410 6025 c0 -11 5 -27 10 -35 8 -12 10 -12 10 5 0 11 -5 27 -10 35
-8 12 -10 12 -10 -5z"/>
<path d="M3282 5950 c0 -14 2 -19 5 -12 2 6 2 18 0 25 -3 6 -5 1 -5 -13z"/>
<path d="M3290 5902 c0 -54 22 -228 31 -241 7 -12 9 -7 5 19 -3 19 -9 79 -12
133 -4 54 -11 100 -15 103 -5 3 -9 -4 -9 -14z"/>
<path d="M5202 6905 c0 -16 2 -22 5 -12 2 9 2 23 0 30 -3 6 -5 -1 -5 -18z"/>
<path d="M5512 6300 c0 -14 2 -19 5 -12 2 6 2 18 0 25 -3 6 -5 1 -5 -13z"/>
<path d="M5271 5353 c0 -5 4 -17 9 -28 8 -18 9 -17 9 8 1 15 -3 27 -9 27 -5 0
-10 -3 -9 -7z"/>
<path d="M4995 5260 c-3 -5 -1 -10 4 -10 6 0 11 5 11 10 0 6 -2 10 -4 10 -3 0
-8 -4 -11 -10z"/>
<path d="M9893 6863 c19 -22 218 -128 302 -161 28 -11 67 -28 88 -36 23 -10
37 -12 37 -6 0 6 -26 23 -57 37 -32 14 -128 59 -213 101 -189 94 -179 89 -157
65z"/>
<path d="M10293 6592 c-52 -47 -75 -89 -87 -162 -4 -19 -45 -105 -92 -193 -81
-148 -99 -191 -62 -150 37 42 178 321 178 352 0 46 36 109 76 133 19 11 39 28
44 38 24 45 6 39 -57 -18z"/>
<path d="M10370 6616 c0 -2 7 -9 15 -16 9 -7 15 -8 15 -2 0 5 -7 12 -15 16 -8
3 -15 4 -15 2z"/>
<path d="M6258 10162 c-9 -15 -28 -39 -41 -53 -24 -25 -24 -26 -6 -37 13 -8
19 -9 19 -1 0 5 6 7 13 3 10 -6 10 -4 0 7 -16 17 -17 30 -1 27 7 -2 18 15 25
36 16 47 13 55 -9 18z"/>
<path d="M5830 10080 c-9 -6 -10 -10 -3 -10 6 0 15 5 18 10 8 12 4 12 -15 0z"/>
<path d="M5800 10052 c0 -5 -8 -17 -18 -28 -10 -11 -27 -33 -37 -49 -14 -24
-11 -22 19 10 45 49 61 75 46 75 -5 0 -10 -4 -10 -8z"/>
<path d="M6881 10050 c-1 -8 8 -34 18 -56 10 -23 22 -55 26 -73 9 -40 21 -47
27 -16 3 14 2 25 -1 25 -4 0 -12 19 -18 43 -13 46 -52 104 -52 77z"/>
<path d="M6143 10034 c-15 -16 -16 -24 -4 -24 8 0 24 30 19 35 -2 2 -9 -3 -15
-11z"/>
<path d="M5243 9943 c0 -29 -5 -59 -12 -67 -7 -8 -11 -21 -9 -27 6 -18 38 54
37 83 0 12 -4 32 -9 43 -6 14 -8 5 -7 -32z"/>
<path d="M5665 9854 c-9 -14 -15 -27 -13 -30 2 -2 12 10 22 26 21 37 15 40 -9
4z"/>
<path d="M5210 9640 c0 -5 5 -10 10 -10 6 0 10 5 10 10 0 6 -4 10 -10 10 -5 0
-10 -4 -10 -10z"/>
<path d="M7680 9505 c0 -8 4 -15 10 -15 5 0 7 7 4 15 -4 8 -8 15 -10 15 -2 0
-4 -7 -4 -15z"/>
<path d="M5144 9302 c-46 -42 -114 -151 -114 -181 0 -6 9 -11 20 -11 11 0 20
3 20 8 0 4 17 25 38 47 20 22 45 52 54 66 16 26 42 108 36 114 -2 2 -26 -17
-54 -43z"/>
<path d="M5232 9330 c0 -14 2 -19 5 -12 2 6 2 18 0 25 -3 6 -5 1 -5 -13z"/>
<path d="M3567 9115 c3 -8 9 -12 14 -9 12 7 11 11 -5 17 -10 4 -13 1 -9 -8z"/>
<path d="M7590 9064 c0 -8 5 -12 10 -9 6 3 10 10 10 16 0 5 -4 9 -10 9 -5 0
-10 -7 -10 -16z"/>
<path d="M7210 9060 c-9 -6 -10 -10 -3 -10 6 0 18 -3 26 -6 8 -3 17 2 20 10 7
18 -19 22 -43 6z"/>
<path d="M4973 8965 c-31 -22 -32 -23 -8 -21 14 0 28 10 34 24 6 12 10 22 8
21 -1 0 -17 -11 -34 -24z"/>
<path d="M5600 8959 c0 -5 11 -9 25 -9 14 0 25 2 25 4 0 2 -11 6 -25 8 -14 3
-25 1 -25 -3z"/>
<path d="M5394 8932 c-16 -15 -41 -35 -54 -44 -24 -16 -24 -16 -3 -11 26 6
101 68 92 77 -3 3 -19 -7 -35 -22z"/>
<path d="M3300 8923 c-53 -20 -82 -34 -78 -38 3 -3 21 1 40 10 20 8 64 18 99
23 l64 10 -55 0 c-30 0 -62 -2 -70 -5z"/>
<path d="M5284 8850 c2 -63 17 -81 27 -32 4 22 2 35 -6 40 -7 4 -15 16 -18 27
-3 11 -4 -5 -3 -35z"/>
<path d="M1831 6374 c0 -11 3 -14 6 -6 3 7 2 16 -1 19 -3 4 -6 -2 -5 -13z"/>
<path d="M1870 6285 c0 -8 4 -15 10 -15 5 0 7 7 4 15 -4 8 -8 15 -10 15 -2 0
-4 -7 -4 -15z"/>
<path d="M9190 5419 c-25 -5 -72 -13 -105 -18 -33 -5 -125 -21 -205 -35 -80
-14 -224 -39 -320 -55 -96 -17 -242 -42 -325 -56 -82 -15 -190 -33 -240 -41
-49 -7 -101 -16 -115 -18 -14 -3 -68 -12 -120 -21 -212 -35 -178 -15 -391
-228 -104 -105 -189 -191 -189 -193 0 -2 89 -63 260 -177 58 -39 108 -76 112
-81 9 -13 -53 -67 -138 -119 -6 -3 -42 18 -80 49 -213 170 -426 267 -679 309
-196 32 -515 10 -650 -46 -11 -4 -51 -18 -90 -30 -38 -13 -72 -25 -75 -28 -3
-3 -32 -19 -65 -36 -116 -57 -248 -155 -355 -264 -58 -59 -113 -117 -123 -130
-28 -35 -117 -174 -117 -183 0 -4 -7 -16 -15 -25 -78 -93 -95 -91 -40 6 19 35
35 67 35 72 0 13 -32 25 -140 49 -52 12 -140 32 -195 45 -55 13 -142 34 -192
45 -51 12 -93 25 -93 28 0 4 19 18 42 32 l41 25 1 100 c1 55 6 115 10 133 7
26 6 32 -8 32 -9 0 -16 -4 -16 -9 0 -4 -27 -23 -60 -40 -59 -32 -60 -33 -60
-75 0 -31 -10 -58 -36 -101 -19 -33 -40 -62 -45 -65 -5 -4 -51 4 -101 16 -51
12 -165 39 -253 59 -88 20 -234 55 -325 76 -91 22 -212 50 -270 63 -191 44
-546 128 -692 162 -148 36 -161 29 -58 -30 47 -27 87 -52 90 -56 3 -3 34 -24
70 -45 36 -21 81 -48 100 -60 19 -13 78 -46 130 -76 52 -29 102 -58 110 -64 8
-7 44 -27 80 -46 36 -19 67 -37 70 -40 3 -4 32 -21 65 -40 33 -18 62 -37 63
-41 2 -4 9 -8 15 -8 7 0 31 -13 55 -29 l43 -28 -33 -16 c-18 -8 -58 -18 -89
-22 l-57 -7 -7 51 c-6 48 -9 51 -35 51 -41 0 -362 -30 -378 -35 -8 -3 -11 -23
-10 -62 l3 -57 -60 -8 c-33 -5 -98 -7 -144 -6 l-84 3 -12 55 c-6 30 -15 63
-21 73 -6 10 -138 148 -293 307 -156 160 -292 302 -303 315 -11 14 -32 31 -46
39 -27 14 -382 136 -395 136 -13 0 -7 -29 44 -212 29 -101 57 -205 64 -233 7
-27 29 -106 48 -175 90 -323 136 -488 142 -517 11 -52 -11 -40 -44 25 -38 74
-92 136 -147 168 -65 38 -81 29 -44 -26 35 -52 70 -156 70 -209 0 -20 4 -41 8
-46 4 -6 47 -22 95 -35 49 -14 93 -28 99 -31 9 -6 44 -125 143 -489 18 -69 46
-168 60 -220 15 -52 38 -133 50 -180 13 -47 33 -121 45 -165 12 -44 33 -120
47 -170 13 -49 27 -93 31 -97 4 -4 90 -15 192 -24 150 -14 202 -15 279 -6 52
6 98 15 104 21 6 6 6 26 -1 58 -6 26 -14 69 -17 94 l-6 45 103 12 c57 7 108
12 115 12 7 0 21 -20 32 -45 l20 -45 188 2 188 3 5 66 c4 52 10 72 32 97 15
18 32 32 38 32 6 0 39 -9 73 -20 34 -11 89 -29 122 -39 33 -11 119 -38 190
-60 72 -23 164 -52 205 -65 41 -13 136 -43 210 -66 74 -23 144 -45 155 -49 25
-10 90 -31 225 -71 58 -18 130 -40 160 -50 30 -11 116 -37 190 -60 74 -23 151
-47 170 -55 19 -7 69 -23 110 -35 41 -12 138 -42 215 -66 593 -190 675 -214
675 -197 0 4 -47 40 -104 78 -106 71 -124 99 -47 77 56 -17 331 -26 421 -13
137 18 194 32 295 68 108 39 249 104 275 128 9 8 20 15 23 15 6 0 106 68 117
80 3 3 34 30 70 60 36 30 67 58 68 62 2 5 10 8 17 8 7 0 21 12 30 27 34 53 74
84 103 81 22 -3 28 -10 37 -48 l11 -45 73 2 c41 1 128 11 195 22 67 11 175 27
241 36 189 26 168 12 163 110 -5 71 -3 85 11 90 9 4 68 10 131 16 63 5 131 11
151 15 36 5 37 4 49 -33 18 -58 42 -101 59 -106 9 -2 51 -3 93 -2 l77 1 -2
-70 -2 -71 85 3 c47 2 121 8 165 13 44 6 139 17 210 24 72 8 172 19 224 25 51
6 99 9 106 6 8 -3 15 -17 17 -33 3 -24 7 -28 33 -26 17 2 118 10 225 19 107 9
229 18 270 21 41 3 109 8 150 11 l75 7 17 80 c24 112 48 225 108 488 28 125
55 248 60 272 6 25 15 66 21 93 6 26 15 63 19 82 4 19 16 69 25 110 10 41 23
104 30 140 26 128 47 215 56 231 13 25 178 56 304 59 l70 1 -40 22 c-22 12
-58 41 -81 64 l-40 42 -60 -9 c-32 -4 -72 -13 -87 -19 -39 -15 -40 -15 -32 17
4 15 11 43 15 62 4 19 16 69 25 110 39 172 47 208 55 274 5 38 11 75 14 82 9
23 -11 25 -146 13 -95 -9 -136 -16 -145 -27 -7 -8 -23 -27 -35 -41 -13 -14
-61 -73 -108 -131 -47 -58 -87 -107 -90 -110 -23 -22 -184 -225 -199 -252 -11
-20 -27 -89 -41 -182 -12 -82 -26 -160 -31 -173 -5 -14 -9 -36 -9 -51 -1 -24
-2 -25 -11 -9 -6 10 -24 57 -40 104 -16 48 -35 96 -42 107 -7 12 -19 41 -27
65 l-14 44 -86 -6 c-158 -11 -345 -28 -358 -32 -11 -4 -13 -23 -10 -78 l3 -72
-129 -3 -129 -3 7 50 c6 47 5 51 -16 56 -13 3 -120 4 -238 3 l-214 -3 -7 -25
c-5 -21 -7 -22 -14 -7 -6 13 -20 17 -68 17 -35 0 -57 4 -51 9 5 4 56 30 114
56 58 26 143 66 190 88 47 22 132 61 190 87 300 136 385 177 385 185 0 4 -18
14 -40 21 -295 94 -711 223 -770 239 -115 31 -338 104 -348 114 -8 8 -4 17 13
30 14 11 84 66 156 123 72 56 146 114 164 128 19 14 71 54 116 90 187 148 417
326 440 340 13 8 24 18 24 23 0 9 -52 7 -110 -4z m-311 -183 c-8 -7 -107 -60
-239 -129 -74 -38 -173 -90 -220 -115 -47 -25 -141 -74 -210 -109 -221 -115
-291 -154 -286 -162 3 -5 34 -18 68 -30 35 -13 77 -29 95 -37 17 -8 37 -14 45
-14 8 0 33 -9 56 -20 22 -11 45 -20 50 -20 10 0 107 -44 132 -59 8 -6 28 -13
44 -16 35 -7 26 -17 -33 -35 -26 -9 -46 -21 -49 -32 -2 -10 -11 -18 -18 -18
-8 0 -19 -9 -26 -20 -7 -11 -21 -20 -30 -20 -10 0 -18 -7 -18 -15 0 -9 -6 -15
-12 -13 -23 4 -58 -13 -68 -33 -7 -12 -21 -19 -39 -19 -19 0 -47 -14 -80 -40
-37 -30 -60 -40 -86 -40 -28 0 -35 -4 -35 -19 0 -11 -6 -22 -12 -24 -10 -4 -9
-8 2 -16 12 -8 5 -11 -27 -11 -37 0 -43 -3 -43 -21 0 -32 -26 -52 -60 -45
l-30 6 0 -79 c0 -43 5 -93 11 -110 8 -23 8 -36 1 -43 -8 -8 -14 -3 -22 18 -16
44 -44 99 -52 102 -5 2 -8 11 -8 21 0 9 -4 21 -9 26 -5 6 -11 47 -15 93 -5 70
-4 82 9 82 8 0 15 5 15 10 0 6 5 10 11 10 10 0 97 57 109 71 3 3 16 12 30 19
14 7 48 29 75 49 28 20 59 42 70 49 117 74 122 80 83 100 -13 6 -61 23 -108
37 -47 14 -94 30 -105 35 -11 4 -74 25 -140 45 -186 56 -308 100 -312 112 -4
10 37 46 127 113 19 14 59 46 90 71 30 25 66 51 78 58 22 12 268 65 612 132
85 16 184 36 220 44 36 8 115 24 175 35 61 12 112 24 114 26 2 2 20 4 39 4 20
0 33 -2 31 -4z m-6933 -635 c48 -53 110 -121 138 -151 28 -30 75 -83 105 -118
29 -34 67 -77 84 -95 16 -17 67 -73 111 -123 l82 -91 17 -104 c42 -252 54
-311 64 -317 12 -8 24 -56 24 -97 0 -26 1 -27 9 -10 5 11 9 33 9 49 1 38 11
28 16 -16 2 -18 8 -61 14 -95 6 -34 11 -66 10 -70 -1 -4 0 -15 4 -23 3 -8 8
-37 11 -65 3 -27 17 -126 31 -220 14 -93 34 -235 45 -315 11 -80 24 -175 30
-212 5 -37 10 -83 10 -102 l0 -36 -92 1 c-51 1 -127 4 -168 8 -70 6 -75 8 -75
29 0 24 1 24 125 25 l125 2 -1 30 c-1 17 -9 84 -18 150 -10 66 -20 138 -22
160 -15 126 -37 267 -50 313 l-16 53 -129 -3 c-71 -2 -129 0 -129 5 0 4 -11 0
-25 -9 -24 -16 -25 -15 -25 5 0 23 -15 28 -24 9 -3 -7 -3 -2 0 11 4 14 2 21
-3 18 -6 -4 -20 26 -33 66 -12 40 -25 79 -28 87 -11 31 -51 186 -52 197 0 14
90 -16 235 -78 93 -40 115 -46 115 -29 0 32 -326 240 -377 240 -11 0 -34 69
-83 255 -21 83 -46 177 -55 210 -10 33 -23 83 -30 110 -7 28 -21 77 -30 110
-41 153 -85 323 -85 332 0 6 11 8 25 5 15 -2 57 -41 111 -101z m4912 -61 c126
-48 274 -134 364 -212 29 -25 65 -55 78 -67 21 -17 23 -22 10 -31 -8 -5 -44
-10 -80 -10 -66 0 -66 0 -175 76 -105 72 -159 121 -232 207 -52 62 -47 68 35
37z m-853 0 c3 -5 -28 -43 -69 -84 -72 -71 -131 -117 -366 -290 -58 -43 -116
-86 -130 -97 -26 -20 -70 -26 -70 -8 0 21 61 98 148 186 116 117 262 214 417
278 33 13 61 24 62 25 1 0 5 -4 8 -10z m723 -62 c100 -106 122 -131 122 -145
0 -7 -17 -32 -39 -55 l-38 -42 -69 33 c-77 37 -169 97 -221 145 -78 70 -81 56
-17 -75 70 -144 99 -185 144 -203 44 -17 49 -30 23 -58 -15 -16 -35 -18 -213
-18 l-196 0 -24 28 c-21 25 -69 77 -182 199 -27 28 -48 57 -48 65 0 8 38 51
84 96 l84 82 269 0 270 0 51 -52z m3946 -80 c-12 -51 -29 -129 -39 -173 -9
-44 -20 -89 -24 -100 -5 -11 -14 -51 -22 -88 -13 -68 -14 -70 -66 -103 -29
-19 -57 -34 -61 -34 -13 0 -78 -59 -65 -60 7 0 36 9 65 20 68 26 103 27 93 3
-4 -10 -11 -44 -16 -76 -5 -33 -16 -84 -24 -115 -17 -65 -19 -122 -5 -122 6 0
10 -5 10 -11 0 -6 -6 -9 -14 -6 -14 6 -33 -39 -21 -51 3 -3 5 0 5 7 0 7 5 9
10 6 6 -3 10 1 10 9 0 9 5 16 11 16 7 0 8 -7 4 -17 -8 -19 -10 -30 -43 -203
-11 -58 -39 -193 -62 -300 -23 -107 -51 -235 -61 -285 -34 -157 -30 -152 -102
-157 -34 -3 -68 -3 -74 0 -21 7 -4 22 26 22 16 0 33 6 39 13 5 6 22 64 37 127
50 215 55 231 70 247 10 10 12 19 6 27 -6 7 -6 29 -1 56 5 25 9 61 10 81 l0
36 -81 -1 c-62 -1 -83 2 -87 13 -4 11 -7 10 -13 -5 -12 -29 -11 73 1 137 5 30
26 167 45 304 62 433 53 401 127 490 34 43 77 95 93 116 121 153 221 269 234
269 4 0 -2 -42 -15 -92z m-7044 -74 c158 -38 345 -82 510 -120 58 -13 124 -29
147 -35 l42 -11 -37 -74 c-39 -79 -38 -105 2 -58 34 41 58 66 88 92 l26 24
203 -47 c112 -25 214 -50 227 -55 25 -11 28 -26 8 -49 -7 -9 -25 -36 -38 -61
-14 -25 -60 -106 -103 -180 -90 -154 -171 -302 -188 -344 -12 -27 -14 -28 -62
-22 -27 4 -77 9 -111 13 l-61 6 -64 -84 c-35 -46 -71 -93 -81 -103 -35 -38 -2
-39 119 -1 65 20 123 38 128 39 6 2 18 -1 28 -6 10 -5 31 -10 47 -10 32 -1 31
-19 -3 -34 -12 -6 -17 -9 -11 -8 7 2 10 -6 7 -17 -3 -10 -9 -19 -14 -19 -5 0
-9 -8 -9 -19 0 -10 -7 -24 -15 -31 -8 -7 -15 -16 -15 -21 0 -4 -16 -34 -35
-67 -20 -32 -33 -65 -30 -73 3 -8 39 -35 80 -62 43 -27 72 -53 69 -60 -5 -13
-87 -17 -100 -4 -13 13 -34 8 -34 -8 0 -12 -4 -13 -17 -6 -26 13 -476 11 -485
-3 -5 -7 -8 -3 -8 8 0 19 0 19 -21 0 -17 -16 -22 -16 -29 -4 -12 18 -13 37 -2
42 4 2 18 26 32 53 14 28 27 52 30 55 3 3 33 52 65 109 82 141 267 450 407
679 26 43 22 66 -14 85 -18 10 -58 32 -88 51 -60 36 -286 169 -335 196 -16 9
-83 49 -148 89 -65 39 -119 71 -121 71 -2 0 -52 30 -112 66 -105 63 -107 66
-64 59 25 -4 110 -22 190 -41z m3825 -224 c3 -5 13 -66 22 -136 15 -117 15
-128 0 -139 -9 -7 -63 -20 -119 -29 -57 -9 -122 -21 -145 -26 -23 -6 -57 -10
-76 -10 -56 0 -62 -16 -48 -127 6 -53 14 -100 18 -106 4 -6 62 -8 169 -3 l163
6 10 -37 c5 -21 12 -61 16 -90 4 -29 15 -62 26 -74 10 -12 19 -29 19 -38 0
-14 2 -14 10 -1 8 12 10 9 10 -12 0 -31 -21 -40 -145 -58 -44 -6 -101 -16
-127 -22 -26 -5 -52 -7 -59 -3 -8 6 -10 -11 -6 -66 4 -41 9 -113 13 -161 l7
-88 -30 0 c-30 0 -30 1 -36 59 -7 86 -18 101 -72 101 -29 0 -45 4 -46 13 0 6
-5 2 -11 -11 -11 -22 -12 -22 -25 15 -19 52 -124 890 -117 929 3 18 1 35 -5
38 -6 4 -11 18 -11 32 0 22 4 25 28 22 24 -3 27 -7 26 -38 -1 -19 -5 -44 -8
-55 -6 -18 1 -25 43 -45 28 -13 60 -34 72 -47 22 -22 49 -31 49 -15 -1 19 -29
120 -39 142 -7 14 -28 33 -48 41 -34 15 -30 16 153 28 104 6 212 13 239 15 28
1 55 3 62 4 6 1 15 -2 18 -8z m-4191 -172 c4 -46 11 -161 16 -256 13 -252 30
-384 46 -378 20 8 35 -63 49 -229 2 -33 7 -87 10 -120 2 -33 7 -96 9 -140 3
-44 8 -122 12 -173 l7 -93 -79 3 c-62 2 -79 6 -79 18 0 8 9 15 20 16 62 3 58
-14 50 187 -8 218 -15 252 -53 264 -30 10 -155 8 -172 -2 -14 -9 -12 -12 -54
72 -20 40 -41 75 -46 78 -10 6 -15 -9 -10 -30 3 -12 18 -119 30 -205 33 -245
38 -296 29 -304 -13 -14 -141 -28 -153 -16 -10 10 32 30 64 30 10 0 22 4 25
10 9 15 -26 291 -42 331 -14 33 -19 37 -54 37 -23 1 -39 -4 -40 -11 -4 -50
-55 241 -118 671 -20 141 -17 152 47 152 20 0 53 3 72 6 l36 6 53 -132 c59
-144 153 -353 169 -373 5 -6 12 -24 16 -39 7 -32 26 -38 26 -9 0 10 7 21 15
24 11 5 13 18 10 54 -27 275 -36 369 -45 433 -5 41 -11 101 -14 132 l-4 57 46
4 c111 9 99 17 106 -75z m3356 22 c11 -11 20 -24 20 -30 0 -5 18 -38 40 -72
22 -35 40 -69 40 -75 0 -7 4 -13 8 -13 23 0 53 -97 67 -223 8 -72 17 -142 20
-155 7 -30 -30 -113 -65 -147 l-29 -28 -11 29 c-11 27 -97 234 -176 419 -19
45 -34 86 -34 93 0 7 -4 12 -9 12 -5 0 -11 10 -14 23 -9 39 -31 91 -49 117
-10 13 -18 35 -18 47 0 22 3 23 95 23 82 0 98 -3 115 -20z m-2675 -72 c100
-60 148 -88 183 -105 17 -9 32 -24 32 -32 0 -23 -62 -121 -77 -121 -7 0 -17 9
-23 19 -5 11 -16 25 -22 33 -7 7 -33 40 -58 73 -25 33 -49 65 -55 71 -5 6 -23
32 -39 57 -17 26 -34 47 -38 47 -4 0 -8 5 -8 11 0 7 8 6 23 -3 12 -8 49 -30
82 -50z m-192 -115 c58 -87 127 -189 153 -226 l48 -68 -31 -59 c-18 -33 -28
-60 -22 -62 10 -3 -50 -117 -61 -118 -3 0 -11 12 -17 28 -51 117 -65 147 -68
151 -2 1 -26 -4 -54 -14 -61 -20 -67 -35 -47 -112 19 -72 46 -217 46 -243 0
-29 -171 -283 -183 -271 -13 13 0 73 21 97 9 10 37 48 61 82 42 62 43 65 37
120 -11 96 -12 98 -59 100 -57 4 -75 10 -81 30 -12 38 -59 692 -51 701 10 9
76 19 136 20 l66 1 106 -157z m2214 138 c5 -3 3 -87 -5 -196 -8 -104 -15 -332
-17 -505 -2 -282 -29 -837 -40 -848 -2 -3 -37 -5 -77 -6 -62 -1 -73 2 -76 17
-3 14 4 17 46 17 31 0 54 5 62 14 20 25 42 461 23 479 -3 4 -15 0 -25 -10 -10
-9 -18 -11 -18 -5 0 8 -8 9 -26 1 -15 -5 -29 -7 -32 -4 -11 11 -20 177 -15
290 3 66 1 131 -4 145 -9 23 -11 21 -28 -30 -10 -30 -18 -57 -18 -60 0 -3 -4
-16 -9 -30 -6 -14 -12 -34 -14 -45 -2 -11 -14 -55 -26 -99 -35 -127 -57 -117
-118 54 -23 63 -49 126 -58 140 -9 14 -20 34 -24 45 -3 11 -6 -10 -7 -47 -1
-38 3 -68 9 -68 5 0 9 -12 10 -27 0 -16 4 -84 9 -153 5 -69 12 -188 16 -265 4
-77 8 -144 9 -150 0 -6 -32 -11 -76 -13 -77 -3 -78 -3 -78 22 0 23 4 25 48 28
l47 3 3 90 c1 50 -1 108 -5 130 -8 37 -12 41 -50 49 -41 9 -43 11 -52 60 -5
28 -12 157 -15 286 l-6 236 67 38 c76 44 73 57 -6 26 -28 -11 -56 -20 -60 -20
-5 0 -10 66 -10 147 -1 81 -4 157 -7 169 -3 12 -1 32 6 43 9 17 20 21 66 21
47 0 56 -3 64 -22 10 -24 54 -187 72 -268 5 -25 25 -96 45 -159 l35 -114 19
29 c10 16 19 34 19 39 0 9 24 95 132 482 7 23 19 44 28 47 23 6 157 4 167 -3z
m295 -55 c8 -7 31 -58 53 -112 102 -264 231 -548 244 -540 5 3 12 -9 16 -27 7
-32 7 -32 15 -7 7 24 8 23 27 -20 12 -25 37 -81 58 -125 49 -108 105 -243 105
-255 0 -14 -70 -193 -79 -203 -5 -4 -16 4 -25 19 -17 25 -17 29 8 98 25 68 25
73 11 116 -26 76 -59 144 -77 158 -14 10 -79 13 -277 13 l-260 0 -3 42 c-2 23
0 71 4 107 26 220 89 727 93 738 6 16 70 15 87 -2z m2058 -43 c12 -32 23 -71
24 -87 1 -29 0 -30 -76 -45 -43 -9 -82 -21 -88 -27 -8 -8 -9 -35 -3 -90 l8
-79 40 -7 c22 -4 77 -7 122 -7 76 -1 82 -3 89 -23 3 -13 15 -41 24 -63 10 -22
21 -53 24 -70 3 -16 3 -24 0 -17 -4 8 -10 10 -17 4 -11 -8 -48 -15 -162 -28
-40 -5 -67 -26 -60 -47 8 -22 23 -201 18 -213 -3 -8 -14 -9 -31 -5 -22 6 -28
14 -33 49 -7 54 -14 60 -67 63 -28 2 -47 9 -52 19 -8 15 -32 203 -45 350 -4
50 -17 186 -30 328 l-5 52 149 0 150 0 21 -57z m1520 34 c0 -7 24 -76 54 -152
40 -105 60 -143 78 -152 12 -7 17 -13 10 -13 -7 0 -10 -5 -7 -10 4 -6 11 -8
16 -5 5 4 12 -2 15 -12 10 -31 46 -127 60 -158 7 -16 24 -63 38 -104 15 -41
32 -84 40 -96 11 -17 12 -30 3 -63 -15 -58 -30 -54 -57 18 -18 48 -41 72 -62
67 -10 -3 -22 2 -27 11 -9 16 -10 15 -17 -1 -5 -14 -13 -17 -37 -11 l-29 6 4
-66 4 -66 -27 0 c-34 0 -38 6 -46 70 -6 55 -27 76 -63 65 -36 -11 -57 10 -64
67 -32 238 -66 536 -66 575 0 37 7 40 108 42 53 1 72 -2 72 -12z m-4650 -217
l0 -190 -37 -16 c-21 -8 -50 -18 -64 -21 l-27 -5 -6 148 c-4 82 -9 175 -12
206 -7 64 -7 64 94 67 l52 1 0 -190z m3874 125 c-1 -16 -9 -77 -18 -135 -27
-173 -45 -322 -46 -372 0 -38 3 -46 15 -42 8 4 15 15 15 27 0 11 2 18 5 15 3
-3 -4 -72 -15 -154 -20 -151 -31 -179 -68 -172 -20 4 -25 124 -7 162 8 16 15
33 15 39 0 13 -77 0 -186 -32 -51 -15 -97 -25 -102 -22 -10 7 -73 194 -126
377 -19 65 -46 159 -61 208 -14 48 -24 91 -21 93 3 3 40 6 83 7 l77 1 9 -40
c19 -80 99 -362 118 -415 11 -30 23 -63 26 -72 6 -20 23 -25 23 -7 0 6 8 8 19
4 21 -6 25 7 36 120 3 33 10 87 15 120 5 33 17 116 26 185 9 69 18 129 21 133
3 4 37 7 76 5 l72 -3 -1 -30z m471 -87 c3 -13 6 -52 8 -88 l2 -65 -75 -17
c-41 -10 -85 -21 -98 -23 -28 -7 -40 -37 -48 -126 l-7 -69 104 0 c57 0 109 -4
114 -8 19 -13 44 -140 31 -157 -7 -9 -51 -21 -116 -31 -136 -22 -130 -19 -143
-54 -7 -18 -20 -32 -32 -34 -11 -3 -47 -9 -80 -15 -33 -5 -71 -13 -84 -17 -24
-7 -24 -7 -18 52 7 73 32 255 52 389 8 55 20 136 26 180 6 44 13 82 16 85 4 5
147 14 285 18 52 2 58 0 63 -20z m-6945 -48 c0 -5 -4 -10 -10 -10 -5 0 -10 5
-10 10 0 6 5 10 10 10 6 0 10 -4 10 -10z m5171 -27 c0 -16 2 -44 4 -63 3 -19
9 -84 14 -145 21 -224 35 -307 54 -300 14 6 37 -59 37 -106 0 -18 5 -61 12
-96 10 -54 9 -66 -3 -74 -26 -16 -38 -10 -59 31 -17 33 -25 39 -48 38 -15 -1
-33 -6 -39 -11 -13 -10 -14 -9 -31 53 -12 43 -20 96 -57 390 -8 63 -20 151
-25 194 -6 44 -9 85 -6 92 3 7 26 15 53 17 26 2 58 4 71 5 18 2 22 -3 23 -25z
m-2907 -40 c4 -32 14 -93 22 -136 9 -43 14 -83 11 -90 -3 -7 -33 -23 -67 -36
-71 -28 -70 -28 -90 55 l-13 55 43 82 c24 45 49 92 55 104 17 39 32 26 39 -34z
m340 -199 c3 -9 7 -34 7 -57 1 -23 3 -34 6 -24 2 9 10 17 17 17 18 0 26 -67
26 -201 0 -114 -5 -135 -68 -271 -29 -64 -28 -63 -149 -74 -60 -5 -87 -3 -98
6 -33 27 -16 37 70 43 47 3 90 9 96 12 5 4 28 45 49 92 60 128 54 237 -10 220
-11 -3 -20 0 -20 5 0 6 -6 6 -14 -2 -12 -9 -17 -5 -25 27 -8 33 -15 112 -12
150 1 10 96 72 112 73 4 0 10 -7 13 -16z m3313 -36 c-3 -8 -6 -5 -6 6 -1 11 2
17 5 13 3 -3 4 -12 1 -19z m-3551 -105 c1 -18 18 -132 30 -205 6 -37 6 -38
-24 -38 -28 0 -31 3 -37 43 -3 23 -11 56 -16 73 -9 30 -11 31 -64 30 -46 -1
-55 2 -55 16 0 11 17 26 43 39 23 12 44 25 47 28 6 8 52 29 65 30 6 1 11 -7
11 -16z m1888 -75 c8 -47 19 -244 13 -238 -3 3 -19 45 -36 94 -32 89 -33 123
-9 169 12 24 25 14 32 -25z m-2208 -20 c4 -29 7 -59 7 -67 -1 -7 5 -32 13 -54
27 -76 10 -113 -31 -67 -10 11 -38 31 -62 45 -49 29 -50 19 15 133 20 34 39
62 43 62 3 0 10 -24 15 -52z m3851 26 c-3 -3 -12 -4 -19 -1 -8 3 -5 6 6 6 11
1 17 -2 13 -5z m1120 -26 c-3 -7 -5 -2 -5 12 0 14 2 19 5 13 2 -7 2 -19 0 -25z
m-2158 -61 c-8 -18 -21 -26 -48 -30 -48 -5 -61 1 -61 29 0 24 12 30 75 37 40
4 48 -5 34 -36z m2485 -116 c7 -11 37 -393 31 -399 -2 -3 -38 -5 -79 -6 -82
-1 -108 15 -39 25 24 3 46 8 49 12 4 3 0 86 -8 184 -9 98 -14 181 -11 186 6
10 51 9 57 -2z m-1286 -73 c22 -70 17 -74 -85 -83 -48 -3 -169 -15 -267 -25
-99 -10 -184 -16 -189 -13 -30 18 40 31 312 58 85 8 160 20 167 26 10 8 10 16
2 34 -14 32 -3 57 23 53 16 -2 26 -16 37 -50z m-984 -122 c9 -76 15 -140 14
-141 -3 -2 -173 -23 -496 -60 -110 -13 -142 -12 -142 5 0 12 35 18 190 35 214
23 313 35 344 41 l29 6 -7 105 c-4 57 -9 117 -12 133 -5 24 -3 29 17 32 13 2
29 -1 35 -6 6 -6 19 -74 28 -150z m1616 108 c0 -52 -54 -75 -66 -28 -7 29 7
44 44 44 13 0 22 -6 22 -16z m-3046 -52 c-11 -75 -52 -263 -58 -270 -7 -7 -97
-4 -139 4 -19 4 -27 11 -25 22 3 14 13 16 59 14 l56 -4 32 134 c31 124 50 166
73 152 5 -3 6 -27 2 -52z m2746 1 c0 -45 -21 -137 -32 -145 -7 -4 -48 -8 -91
-8 -59 0 -78 3 -75 13 3 6 24 13 49 15 24 2 48 7 52 11 5 5 14 33 20 62 10 43
17 54 37 60 38 11 40 10 40 -8z m727 -93 c7 -58 9 -108 5 -112 -4 -4 -45 -11
-92 -16 -462 -52 -590 -65 -595 -60 -3 3 -3 13 1 22 4 11 19 16 50 16 25 0 99
6 167 14 217 26 315 36 349 36 54 0 56 6 48 105 -8 95 -3 107 35 103 17 -3 21
-16 32 -108z m-1657 75 c0 -8 -5 -15 -12 -15 -6 0 -4 -8 6 -19 22 -24 17 -56
-9 -56 -14 0 -22 10 -28 38 -5 20 -6 44 -3 52 7 20 46 20 46 0z m-2400 -52 c0
-41 -3 -54 -10 -43 -13 20 -13 100 0 100 6 0 10 -26 10 -57z m2514 -96 c6 -35
6 -61 0 -66 -8 -8 -356 -61 -397 -61 -10 0 -17 5 -15 12 2 6 40 18 84 25 43 7
121 20 173 29 l93 17 -6 43 c-4 35 -2 45 12 53 33 20 47 8 56 -52z m-2969 -27
c22 -42 20 -43 -25 -15 -22 14 -44 25 -50 25 -5 0 -10 5 -10 10 0 6 16 10 35
10 28 0 37 -5 50 -30z m1718 -107 c23 -112 22 -108 47 -107 14 1 73 4 132 8
l106 6 7 -48 c3 -26 10 -54 14 -61 5 -7 7 -21 4 -30 -5 -18 -140 -109 -247
-165 -66 -35 -73 -36 -115 -27 -39 9 -208 37 -343 57 -26 4 -38 11 -42 27 -8
31 -7 80 2 95 10 14 141 102 153 102 5 0 9 5 9 10 0 20 27 9 54 -21 15 -16 33
-28 39 -26 7 2 23 34 37 70 22 58 32 72 75 102 28 18 53 34 56 34 4 1 9 -11
12 -26z m-720 -134 c23 -12 44 -24 47 -28 3 -3 37 -22 75 -41 l70 -35 5 -53
c3 -32 1 -57 -5 -62 -12 -10 -177 -36 -332 -53 -92 -10 -105 -9 -144 8 -23 11
-58 32 -78 48 -20 16 -52 35 -71 43 -35 15 -70 42 -70 54 0 4 71 5 159 2 105
-3 160 -1 165 6 3 6 9 38 12 71 l7 61 59 0 c40 0 72 -7 101 -21z m-543 -58 c0
-20 -13 -35 -23 -25 -7 8 4 44 14 44 5 0 9 -9 9 -19z"/>
<path d="M4405 3210 c-8 -13 5 -13 25 0 13 8 13 10 -2 10 -9 0 -20 -4 -23 -10z"/>
<path d="M3573 3629 c3 -39 7 -73 9 -74 10 -10 75 -14 88 -5 13 8 12 15 -8 52
-28 54 -65 98 -82 98 -10 0 -11 -17 -7 -71z"/>
<path d="M6216 3368 c-10 -100 -7 -165 8 -181 8 -8 16 -29 18 -48 l3 -34 55 0
c48 0 55 3 58 21 3 23 -69 197 -92 223 -8 9 -18 28 -21 44 -12 47 -22 39 -29
-25z"/>
<path d="M7475 5280 c3 -5 8 -10 11 -10 2 0 4 5 4 10 0 6 -5 10 -11 10 -5 0
-7 -4 -4 -10z"/>
<path d="M10225 4870 c3 -5 8 -10 11 -10 2 0 4 5 4 10 0 6 -5 10 -11 10 -5 0
-7 -4 -4 -10z"/>
<path d="M1656 4519 c-8 -24 -25 -123 -28 -162 -2 -32 1 -40 26 -52 15 -8 39
-15 52 -15 27 0 28 -11 -11 143 -23 91 -31 109 -39 86z"/>
<path d="M1600 4160 l0 -100 33 0 c51 0 102 -18 156 -55 54 -36 61 -33 34 18
-9 18 -29 73 -44 122 l-27 90 -43 1 c-24 1 -57 7 -72 13 -16 6 -30 11 -33 11
-2 0 -4 -45 -4 -100z"/>
<path d="M10645 2500 c-9 -15 4 -30 26 -30 16 0 19 -7 19 -49 0 -28 6 -53 13
-60 21 -16 27 -3 27 56 0 46 3 53 20 53 11 0 23 0 28 0 4 0 9 -25 12 -55 6
-64 24 -78 28 -22 4 45 12 46 35 5 20 -35 19 -35 54 19 10 16 12 13 12 -19 1
-38 14 -57 27 -37 8 14 8 124 -1 138 -13 22 -42 11 -57 -21 l-15 -33 -16 31
-16 31 -95 2 c-55 1 -97 -3 -101 -9z"/>
<path d="M4305 2115 c-115 -85 -239 -176 -275 -202 -36 -26 -130 -95 -210
-153 -207 -149 -220 -160 -194 -160 24 0 58 13 182 72 48 22 130 59 182 83
103 46 226 102 250 114 16 9 267 124 473 218 70 32 128 63 128 68 3 17 -46 35
-122 44 -39 5 -75 15 -79 21 -6 10 -103 50 -120 49 -3 0 -99 -69 -215 -154z"/>
</g>
</svg>
